<svg version="1.1" id="Layer_1" xmlns="http://www.w3.org/2000/svg" xmlns:xlink="http://www.w3.org/1999/xlink" x="0px" y="0px" viewBox="0 0 500 500" style="width: 164px;" xml:space="preserve" data-imageid="startup-2-80" imageName="Startup 2" class="illustrations_image">
<style type="text/css">
	.st0_startup-2-80{fill:#FBB03B;}
	.st1_startup-2-80{opacity:0.32;fill:url(#SVGID_1_);enable-background:new    ;}
	.st2_startup-2-80{opacity:0.32;fill:url(#SVGID_00000030466483192252656990000017810439756391826816_);enable-background:new    ;}
	.st3_startup-2-80{fill:#EFEFEF;}
	.st4_startup-2-80{fill:#68E1FD;}
	.st5_startup-2-80{opacity:0.61;fill:#363636;enable-background:new    ;}
	.st6_startup-2-80{opacity:0.29;fill:#363636;enable-background:new    ;}
	.st7_startup-2-80{opacity:0.32;fill:url(#SVGID_00000124127286167521631680000003482747457185023404_);enable-background:new    ;}
	.st8_startup-2-80{opacity:0.5;fill:#363636;enable-background:new    ;}
	.st9_startup-2-80{opacity:0.7;fill:#363636;enable-background:new    ;}
	.st10_startup-2-80{fill:#D43500;}
	.st11_startup-2-80{fill:#FFAC2A;}
	.st12_startup-2-80{fill:#FF6753;}
	.st13_startup-2-80{fill:#312A87;}
	.st14_startup-2-80{fill:#42210B;}
	.st15_startup-2-80{opacity:0.3;fill:#EFEFEF;enable-background:new    ;}
	.st16_startup-2-80{opacity:0.32;fill:url(#SVGID_00000048484953962322302930000005902389857517314221_);enable-background:new    ;}
	.st17_startup-2-80{opacity:0.32;fill:url(#SVGID_00000018930788056902668840000001064953111830353819_);enable-background:new    ;}
	.st18_startup-2-80{fill:#A07DEF;}
</style>
<path id="field_startup-2-80" class="st0_startup-2-80" d="M29.8,268.3l201.1-114.5c10-5.7,22.3-5.6,32.2,0.2l207.2,120.7c8.5,5,11.4,16,6.4,24.5&#10;&#9;c-1.6,2.7-3.8,4.9-6.5,6.5L276.9,416.8c-13.3,7.7-29.7,7.7-43.1,0l-204-117.4c-8.6-4.9-11.6-15.9-6.6-24.5&#10;&#9;C24.7,272.2,27,269.9,29.8,268.3z"/>
<g id="launch_startup-2-80">
	
		<linearGradient id="SVGID_1_-startup-2-80" gradientUnits="userSpaceOnUse" x1="191.7596" y1="229.1206" x2="213.2197" y2="242.6606" gradientTransform="matrix(1 0 0 -1 0 502)">
		<stop offset="0" style="stop-color:#EFEFEF;stop-opacity:0"/>
		<stop offset="1" style="stop-color:#D43500"/>
	</linearGradient>
	<polyline class="st1_startup-2-80" points="284.4,254.4 216.5,294.5 166.8,248.6 227.3,212.6 &#9;"/>
	
		<linearGradient id="SVGID_00000160883706547666930350000003543066064905848235_-startup-2-80" gradientUnits="userSpaceOnUse" x1="237.0535" y1="177.4275" x2="255.2935" y2="203.3775" gradientTransform="matrix(1 0 0 -1 0 502)">
		<stop offset="0" style="stop-color:#EFEFEF;stop-opacity:0"/>
		<stop offset="1" style="stop-color:#D43500"/>
	</linearGradient>
	
		<polyline style="opacity:0.32;fill:url(#SVGID_00000160883706547666930350000003543066064905848235_);enable-background:new    ;" points="&#10;&#9;&#9;305.2,305.1 243.5,340.6 194.3,307.9 253.6,272 &#9;"/>
	<path class="st3_startup-2-80" d="M227.1,257l-36.2-22.2c0,0,9.1-7.3,14.3-4.8s5.9,3.5,5.9,3.5s3.7-8,10.2-6.3s8,6.3,8,6.3s2.8-7.6,9.1-3.5&#10;&#9;&#9;s6.9,11.4,6.9,11.4l-0.7,26.2L227.1,257z"/>
	<path class="st3_startup-2-80" d="M272.9,261.5l36.2-22.2c0,0-9.1-7.3-14.3-4.8s-5.9,3.5-5.9,3.5s-3.7-8-10.2-6.3s-8,6.3-8,6.3s-2.8-7.6-9.1-3.5&#10;&#9;&#9;s-6.9,11.4-6.9,11.4l0.7,26.2L272.9,261.5z"/>
	<path class="st4_startup-2-80 targetColor" d="M267,199.6c0,0,13.3,14.4,13.3,22.6s0,34.8,0,34.8h-5.6c0,0-11.4-27.4-18.7-36.4S267,199.6,267,199.6z" style="fill: rgb(104, 225, 253);"/>
	<path class="st5_startup-2-80" d="M267,199.6c0,0,13.3,14.4,13.3,22.6s0,34.8,0,34.8h-5.6c0,0-11.4-27.4-18.7-36.4S267,199.6,267,199.6z"/>
	<path class="st4_startup-2-80 targetColor" d="M233.6,199.6c0,0-13.3,14.4-13.3,22.6s0,34.8,0,34.8h5.6c0,0,11.4-27.4,18.7-36.4S233.6,199.6,233.6,199.6z" style="fill: rgb(104, 225, 253);"/>
	<path class="st5_startup-2-80" d="M233.6,199.6c0,0-13.3,14.4-13.3,22.6s0,34.8,0,34.8h5.6c0,0,11.4-27.4,18.7-36.4S233.6,199.6,233.6,199.6z"/>
	<path class="st4_startup-2-80 targetColor" d="M263.4,103.4c-3.2-9.1-7.5-17.8-12.7-25.9c0,0-6.6,9.3-12.6,26.2C245.5,107.8,254.9,106.5,263.4,103.4z" style="fill: rgb(104, 225, 253);"/>
	<ellipse class="st4_startup-2-80 targetColor" cx="250.3" cy="161.9" rx="13.6" ry="12.5" style="fill: rgb(104, 225, 253);"/>
	<path class="st4_startup-2-80 targetColor" d="M250.6,77.5c0,0-40.2,56.8-13.4,144.6c0,0,3,18.8,12.6,18.4s16.9-20.7,16.9-20.7S288.5,135.6,250.6,77.5z" style="fill: rgb(104, 225, 253);"/>
	<path class="st5_startup-2-80" d="M263.4,103.4c-3.2-9.1-7.5-17.8-12.7-25.9c0,0-6.6,9.3-12.6,26.2C245.5,107.8,254.9,106.5,263.4,103.4z"/>
	<ellipse class="st5_startup-2-80" cx="250.3" cy="161.9" rx="13.6" ry="12.5"/>
	<path class="st4_startup-2-80 targetColor" d="M237.2,222.1c0,0-9.2,9.9-9.2,15.6s0,24,0,24h3.8c0,0,7.9-18.9,12.9-25.1S237.2,222.1,237.2,222.1z" style="fill: rgb(104, 225, 253);"/>
	<path class="st4_startup-2-80 targetColor" d="M263.4,222.1c0,0,9.2,9.9,9.2,15.6s0,24,0,24h-3.8c0,0-7.9-18.9-12.9-25.1S263.4,222.1,263.4,222.1z" style="fill: rgb(104, 225, 253);"/>
	<path class="st6_startup-2-80" d="M237.2,222.1c0,0-9.2,9.9-9.2,15.6s0,24,0,24h3.8c0,0,7.9-18.9,12.9-25.1S237.2,222.1,237.2,222.1z"/>
	<path class="st6_startup-2-80" d="M263.4,222.1c0,0,9.2,9.9,9.2,15.6s0,24,0,24h-3.8c0,0-7.9-18.9-12.9-25.1S263.4,222.1,263.4,222.1z"/>
	<path class="st3_startup-2-80" d="M246.2,238.5c0,0-15.6,2.8-18.2,9.6s-0.7,11.3-0.7,11.3s-9.9,0.3-11.6,7.5s0,9.4,0,9.4s-22,0.9-21.4,24.2v7.5&#10;&#9;&#9;l51.9-31.3V238.5z"/>
	<path class="st3_startup-2-80" d="M253.6,236.4c0,0,15.6,2.8,18.2,9.6s0.7,11.3,0.7,11.3s9.9,0.3,11.6,7.5s0,9.4,0,9.4s22,0.9,21.4,24.2v7.5&#10;&#9;&#9;l-51.9-31.3L253.6,236.4z"/>
</g>
<g id="person_startup-2-80">
	
		<linearGradient id="SVGID_00000118389590527789641050000016448653248777282196_-startup-2-80" gradientUnits="userSpaceOnUse" x1="112.0006" y1="176.2996" x2="130.0306" y2="201.9396" gradientTransform="matrix(1 0 0 -1 0 502)">
		<stop offset="0" style="stop-color:#EFEFEF;stop-opacity:0"/>
		<stop offset="1" style="stop-color:#D43500"/>
	</linearGradient>
	
		<polyline style="opacity:0.32;fill:url(#SVGID_00000118389590527789641050000016448653248777282196_);enable-background:new    ;" points="&#10;&#9;&#9;168.1,298.6 106.4,334.1 81,317.1 143.3,281.7 &#9;"/>
	<polygon class="st3_startup-2-80" points="170.5,212.6 170.5,297.3 150.4,308.8 149.9,224.6 &#9;"/>
	<polygon class="st8_startup-2-80" points="170.5,212.6 170.5,297.3 150.4,308.8 149.9,224.6 &#9;"/>
	<polygon class="st3_startup-2-80" points="133.2,214.1 132.5,299.2 150.4,308.8 149.9,224.6 &#9;"/>
	<polygon class="st9_startup-2-80" points="133.2,214.1 132.5,299.2 150.4,308.8 149.9,224.6 &#9;"/>
	<polygon class="st3_startup-2-80" points="133.2,214.1 149.9,224.6 170.5,212.6 153.6,202.3 &#9;"/>
	<polyline class="st10_startup-2-80" points="144.9,210.8 144.9,216.5 156.3,212.2 156.3,205.3 &#9;"/>
	
		<ellipse transform="matrix(0.9013 -0.4332 0.4332 0.9013 -77.9205 86.3862)" class="st10_startup-2-80" cx="150.6" cy="214.2" rx="6.2" ry="3.1"/>
	
		<ellipse transform="matrix(0.9013 -0.4332 0.4332 0.9013 -75.2114 85.7701)" class="st10_startup-2-80" cx="150.6" cy="207.9" rx="6.3" ry="3.1"/>
	<path class="st11_startup-2-80" d="M110.8,192.5c0.4-6.6,2.8-10.1,1.3-16.5c-4.8-5.2-13.7-11.4-14.7-11.6l-5.1,1.2c-4.4,1-7.5,4.9-7.6,9.3&#10;&#9;&#9;c-0.3,10.2-0.7,27.3-0.2,28.7s10.4,10,25.2,6.2C110.2,204.1,110.4,198.3,110.8,192.5z"/>
	<path class="st12_startup-2-80" d="M113.6,144.1c0,0,6.8-5.8,7.5-7.2s0.3-12.9,3.2-12.6s7.5,1.8,7.3,3.8s-0.3,1.7-0.3,1.7&#10;&#9;&#9;c0.6,0.1,1.2,0.5,1.4,1.1c0.6,1.1-4.6,5.9-4.8,6.7s-7.1,11.3-7.4,11.6"/>
	<path class="st12_startup-2-80" d="M131.8,201.8c0,0,8.1,4.8,9.7,4.7s4.6-2.1,5.4-2.5s1.2,0.7,1.2,0.7s4.4-1.4,6.1-0.2s-3.5,4.5-5.3,5.5&#10;&#9;&#9;s-5.1,2.2-7,2.2c0,0-6.8-1.9-11.4-3.3"/>
	<path class="st11_startup-2-80" d="M118.6,138c0,0,8,3.7,7.1,8.6c0,0-17.4,29.5-24,31.5s-10.4-11-8.6-12.9S118.6,138,118.6,138z"/>
	<path class="st12_startup-2-80" d="M82.3,286.6c-0.5,1.3-2.9,18.9-2.8,22.3s5.4,3.8,7,3.6s4.7-1.6,6.7-1.7s13-2.1,12.7-5s-2.2-5.7-4.7-5.9&#10;&#9;&#9;s-9.2,0.3-9.2,0.3l0.7-15.9"/>
	<path class="st13_startup-2-80" d="M84.6,203.6c-1.6,7.9-2.6,15.9-2.9,24c-0.2,8.3-2.7,70.4-2.7,70.4s7,4.2,20.4,0.3c1.9-0.6,4.4-57.5,4.4-57.5&#10;&#9;&#9;l-4.6-29.4"/>
	<path class="st12_startup-2-80" d="M109.4,306.8c-0.5,1.3-2,19-1.6,22.4s5.6,3.5,7.1,3.3s4.6-1.8,6.6-2s12.9-2.8,12.4-5.7s-2.5-5.6-5-5.6&#10;&#9;&#9;s-9.2,0.8-9.2,0.8l-0.1-15.9"/>
	<path class="st13_startup-2-80" d="M109.8,209.8c0,0,9.4,31.2,12.9,59.3c0.8,6.8,1.9,43.5,1.9,43.5s-8.5,5.8-18.7,2.5c0,0-2.4-46.5-2.7-47.6&#10;&#9;&#9;c-3.9-15.8-9.6-34.7-10.5-58.6"/>
	<path class="st14_startup-2-80" d="M134,324.8c-0.3-2-1.4-3.8-3-5c-1.9,2.7-4.7,4.7-7.9,5.5c-5.1,1.1-10.3,0.7-15.2-1.3&#10;&#9;&#9;c-0.1,1.7-0.1,3.5-0.1,5.2c0.3,3.4,5.6,3.5,7.1,3.3s4.6-1.8,6.6-2S134.4,327.7,134,324.8z"/>
	<path class="st14_startup-2-80" d="M102.7,300.4c-3.1,3.4-7.5,5.5-12.2,5.5c-2.5,0-5-0.3-7.4-0.8c-1.2-0.1-2.3-0.5-3.3-1.1&#10;&#9;&#9;c-0.2,1.6-0.3,3.2-0.3,4.9c0.2,3.5,5.4,3.7,7,3.6s4.7-1.6,6.7-1.7s13-2.2,12.6-5.1C105.6,303.6,104.5,301.6,102.7,300.4z"/>
	<path class="st15_startup-2-80" d="M110.8,192.5c0.4-6.6,2.8-10.1,1.3-16.5c-4.8-5.2-13.7-11.4-14.7-11.6l-5.1,1.2c-4.4,1-7.5,4.9-7.6,9.3&#10;&#9;&#9;c-0.3,10.2-0.7,27.3-0.2,28.7s10.4,10,25.2,6.2C110.2,204.1,110.4,198.3,110.8,192.5z"/>
	<path class="st12_startup-2-80" d="M108.2,150.7c0,0,2.1,15.3-3.6,16.6s-11.9-5.4-12.2-8.6S100.6,145.1,108.2,150.7z"/>
	<path class="st14_startup-2-80" d="M111.2,154c0.9-0.1,1.5-0.8,1.5-1.7c0,0,0-0.1,0-0.1c-0.6-3.2-2.8-9.6-10.8-9.8c-6.2-0.1-10.1,2.6-11.9,6.8&#10;&#9;&#9;l0,0l-0.1,0.2l-0.5,1.4c-0.6,2-0.8,4.1-0.6,6.2c0.3,5.8,4.7,9.1,10.3,9.8c0,0-2.3-8.6,1.4-7.2s6.9,0.9,5.7-5L111.2,154z"/>
	<path class="st14_startup-2-80" d="M95.9,149.9l0.5,0.6C96.4,150.5,96.4,150.2,95.9,149.9z"/>
	<path class="st14_startup-2-80" d="M93.8,147.7c-1.1-0.3-13.7-5.1-17.4,1S76,164,71.5,165.2s-17.3,0.5-18.5,6.3c-1.2,5.6,4.7,8.8,3.3,11.3&#10;&#9;&#9;c-3.5,2.2-6.3,5.2-4.7,9.6c0.9,2.3,2.6,4.3,4.8,5.5c5.3,3.1,12.5,0.7,16.9-3c3.8-3.2,3.5-7.1,2-11.4c-1.1-3.3-3.1-7.4,0.6-9.8&#10;&#9;&#9;c5.5-3.6,12,0.5,13.8-3.6s-6.2-18.6,0.3-19.9c3.6-0.7,5.2-0.5,5.9-0.2L93.8,147.7z"/>
	<path class="st11_startup-2-80" d="M112.1,176c0,0,8.4,16.1,11.4,18.9s15.5,7.5,16.2,8.7s-1.7,5.5-2.7,7.3s-15.5-2-18-4s-12.2-9.3-15.8-17.8&#10;&#9;&#9;s3.7-13.1,3.7-13.1"/>
	<path class="st15_startup-2-80" d="M112.1,176c0,0,8.4,16.1,11.4,18.9s15.5,7.5,16.2,8.7s-1.7,5.5-2.7,7.3s-15.5-2-18-4s-12.2-9.3-15.8-17.8&#10;&#9;&#9;s3.7-13.1,3.7-13.1"/>
</g>
<g id="designer_startup-2-80">
	
		<linearGradient id="SVGID_00000095318672023212263460000003716339655588136380_-startup-2-80" gradientUnits="userSpaceOnUse" x1="382.1539" y1="162.6943" x2="400.1839" y2="188.3343" gradientTransform="matrix(1 0 0 -1 0 502)">
		<stop offset="0" style="stop-color:#EFEFEF;stop-opacity:0"/>
		<stop offset="1" style="stop-color:#D43500"/>
	</linearGradient>
	
		<polyline style="opacity:0.32;fill:url(#SVGID_00000095318672023212263460000003716339655588136380_);enable-background:new    ;" points="&#10;&#9;&#9;438.3,312.2 376.5,347.7 351.2,330.7 406.8,300.3 &#9;"/>
	
		<linearGradient id="SVGID_00000093887893374732022520000013986895036577842849_-startup-2-80" gradientUnits="userSpaceOnUse" x1="304.2773" y1="122.0719" x2="322.3073" y2="147.7119" gradientTransform="matrix(1 0 0 -1 0 502)">
		<stop offset="0" style="stop-color:#EFEFEF;stop-opacity:0"/>
		<stop offset="1" style="stop-color:#D43500"/>
	</linearGradient>
	
		<polyline style="opacity:0.32;fill:url(#SVGID_00000093887893374732022520000013986895036577842849_);enable-background:new    ;" points="&#10;&#9;&#9;360.4,352.8 298.6,388.3 273.3,371.4 335.6,336 &#9;"/>
	<path class="st4_startup-2-80 targetColor" d="M300.6,257c0,0.7-12.8-72.2-12.8-72.2l105.5-60.6l11,72.8L300.6,257z" style="fill: rgb(104, 225, 253);"/>
	<path class="st14_startup-2-80" d="M351.4,349.1l5.5-1.5l-0.9-6.7C356.1,340.9,350.1,341.9,351.4,349.1z"/>
	<path class="st14_startup-2-80" d="M358.9,329.7c0,0,1.9,22.5,1.4,22.8s-5.8,0.7-5.8,0.3s-0.3-10.3-0.3-10.3s-2.6,4.4-2.8,6.5&#10;&#9;&#9;c0,0-6.3-3.6-7.5-6.5s2.7-14.9,4.2-15.6"/>
	<path class="st14_startup-2-80" d="M337.9,360.9l6.2-6.6l-4-5.1C340.1,349.3,336.3,357.5,337.9,360.9z"/>
	<path class="st14_startup-2-80" d="M347.1,334.9l2.9,27.1c0,0-4.7,1.6-5.5,1.5c-1.2-0.4-2.3-0.9-3.4-1.6l-1-9c0,0-2.7,2.7-2.2,8.2&#10;&#9;&#9;c0-0.4-4.3-1.8-4.8-2c-1.7-0.8-3.4-1.7-5-2.7c-1.6-1.1-7.8-6.2-4.5-8.2c2.8-1.7,11.9-0.9,11.9-0.9l0.1-11.2"/>
	<path class="st18_startup-2-80" d="M357.9,238c-0.1-0.4,0.1-0.7,0.5-0.8c0.1,0,0.1,0,0.2,0c-0.6-2.4-1.6-4.6-3-6.6l-26.2-3.1&#10;&#9;&#9;c0,0-5.3,18.7-7.3,51c-1.6,25,10.7,62.2,10.7,62.2s12.7,3.2,18.8-3l-0.2-5.4c3.2,0,6.3-0.3,9.4-0.8&#10;&#9;&#9;C363.9,300.3,361.5,268.9,357.9,238z"/>
	<path class="st14_startup-2-80" d="M352.3,336.1c-1.1-7.7-2.2-15.4-3.3-23.2c-1-7.4-2.7-15-2.7-22.5s2.5-14.2,3.8-21.3&#10;&#9;&#9;c1.2-6.9,1.5-13.9,0.9-20.9c-0.1-1.6-2.5-1.6-2.3,0c0.7,7.8,0.2,15.7-1.4,23.4c-1.5,6.9-3.5,13.4-3.2,20.5s1.7,14.4,2.7,21.5&#10;&#9;&#9;c1.1,7.7,2.2,15.4,3.3,23.2C350.2,338.4,352.5,337.7,352.3,336.1z"/>
	<path class="st12_startup-2-80" d="M315.1,220.2c-1.1-0.4-2.3-0.7-3.5-1l-0.1-0.1c-3.3-1.2-6.6-2.2-10.1-2.9l-6.6-4.5l0,0&#10;&#9;&#9;c-0.5-0.4-1.2-0.3-1.5,0.1c-0.1,0.1-0.2,0.3-0.2,0.5c-0.4,1.1,1.9,3.5,2.7,4.1s-0.6-0.5,0.3,0.2c0.1,0.1,0.8,0.8,0.9,0.7&#10;&#9;&#9;c-2.2,0.1-4.4,0.7-6.4,1.8c-0.6,0.4-0.7,1.1-0.4,1.6c0.1,0.1,0.2,0.3,0.4,0.4c0.4,0.2,0.9,0.3,1.3,0.3l-0.2,0.1&#10;&#9;&#9;c-1.5,0.6-2.1,1.8-0.9,3.1c0.1,0.1,0.2,0.2,0.4,0.3c0.3,0.3,0.6,0.4,1,0.2v0.2c-0.2,0.5-0.1,1,0.1,1.4c0.6,0.8,1.6,1,2.4,0.4&#10;&#9;&#9;c0,0,0,0,0,0l0.5-0.2c0.6,1.5,2.2,1.5,3.7,0.9c1.6-0.6,3.1-1.3,4.7-1.9l4.7,1.8c1.3,0.5,3.5,2,4.9,1.5s0.8-2.8-0.6-2.3&#10;&#9;&#9;c0.3-0.1-0.3-0.2-0.5-0.2l-1.3-0.5c1.2,0.5,2.4,0.7,3.7,0.7c0.7,0,1.2-0.6,1.1-1.2c0-0.3-0.1-0.6-0.3-0.8c-0.7-0.6-1.4-1.2-2.2-1.8&#10;&#9;&#9;c0.1-0.3,0.1-0.5,0-0.8h0.2c0.3,0,0.6,0,0.8-0.2l0.2,0.1C315.9,222.9,316.5,220.6,315.1,220.2z"/>
	<path class="st11_startup-2-80" d="M347.2,189.4c0,0-14.6,0-19.6,9.2c-4.2,7.7-3.4,20.5-3.4,20.5l-16.8-1.3c0,0-4.8,2-3.6,8.1&#10;&#9;&#9;c0.6,3.3,17.3,4.8,26.5,7.1s25.8,2.9,28.4-2.6s2.3-27.9-0.8-34.3S347.2,189.4,347.2,189.4z"/>
	<path class="st12_startup-2-80" d="M333.8,175.3c0,0-0.8,11.1,2.6,13.6s9-1.7,9-1.7"/>
	<path class="st14_startup-2-80" d="M336.5,169.7c-1.5,1.2-2.6,2.7-3.4,4.4c-2.8,7,4.7,15.6,11.4,17l3.5-1.1c0,0,4.6-6.8,4.6-10.6&#10;&#9;&#9;c0-3.7-1.4-7.2-3.9-9.9C345.2,166.3,340.1,166.9,336.5,169.7z"/>
	<path class="st14_startup-2-80" d="M344.6,191.1c0,0-12.5,36.2-3.1,42.1s27.9,0.5,24.3-8.4S348.1,190,348.1,190"/>
	<path class="st12_startup-2-80" d="M386.4,186.4c0,0-5.2-5.4-6.1-8.2s0.6-11.8-0.6-12.5s-2.9,2.8-2.6,3.9c0,0.1,0,0.1-0.1,0&#10;&#9;&#9;c-0.1-0.1-0.2-0.3-0.3-0.5c-0.4-0.7-0.8-1.4-1.2-2c-0.5-0.9-1-1.8-1.6-2.6c-0.5-0.8-1-1.5-1.6-2.3c-0.2-0.3-0.7-1.1-1.1-0.9&#10;&#9;&#9;c-0.1,0-0.2,0.1-0.2,0.2c0,0.6,0.1,1.2,0.4,1.8c0.2,0.6,0.4,1.2,0.6,1.8s0.3,0.9,0.5,1.4c0,0.1,0.2,0.5,0,0.5c-0.1,0-0.1,0-0.1-0.1&#10;&#9;&#9;c-0.6-0.5-1.1-1.1-1.6-1.7c-0.8-0.9-1.5-1.7-2.3-2.5c-0.4-0.4-0.8-0.8-1.2-1.2c-0.3-0.3-0.7-0.6-1.1-0.7c-1.2-0.2,0.5,2.4,0.7,2.7&#10;&#9;&#9;c0.5,0.9,1.1,1.8,1.7,2.8c0.1,0.1,0.8,1.3,0.5,1.5c0,0-0.1,0-0.2,0c-0.4-0.2-0.7-0.4-1-0.7c-0.5-0.4-0.9-0.8-1.3-1.2&#10;&#9;&#9;s-0.9-0.8-1.3-1.2c-0.3-0.3-0.7-0.5-1.1-0.7c-0.2-0.1-0.5-0.1-0.6,0.1s0,0.4,0.1,0.5c0.2,0.4,0.4,0.8,0.6,1.1c0.6,1,1.4,1.9,2,2.8&#10;&#9;&#9;c0.3,0.4,0.6,0.8,0.9,1.3c0.2,0.3,0.4,0.6,0.5,0.9c0,0,0,0.1,0,0.1c0,1.1-2.4-1.8-3.6-1.4s2.6,4.2,4.6,5.7c2.1,1.5,4,3.1,5.9,4.9&#10;&#9;&#9;c0.6,0.9,5.4,9.3,8,11.5"/>
	<path class="st12_startup-2-80" d="M436.8,286.8c0.5,1.3,3,19.2,2.8,22.7s-5.5,3.8-7.1,3.7s-4.8-1.6-6.8-1.7s-13.2-2.2-12.9-5.1s2.2-5.8,4.8-6&#10;&#9;&#9;s9.3,0.3,9.3,0.3l-0.7-16.2"/>
	<path class="st13_startup-2-80" d="M438.9,304.6c-5.4,1.8-11.2,1.8-16.5-0.2c-2-0.7-3.6-2.2-4.5-4.1h-0.3c-2.5,0.1-4.5,3-4.8,5.9&#10;&#9;&#9;s10.8,5.1,12.9,5.2s5.2,1.6,6.8,1.7s6.9-0.1,7.1-3.7c0-1.7-0.1-3.4-0.3-5.1C439.2,304.5,439.1,304.6,438.9,304.6z"/>
	<path class="st12_startup-2-80" d="M397.2,154.4c0,0-2.5-3.7-2.5-5.5s2.2,0.6,2.2,0.6l-0.3-4.5c0,0,1.7,2.6,2.5,3.9s3.6,7.1,4.1,8.1&#10;&#9;&#9;s4.9,3.9,4.9,3.9s-1.3,4.2-2.6,4.4s-8-5.7-8-5.7L397.2,154.4z"/>
	<path class="st13_startup-2-80" d="M404.9,156.4c0,0-4.9,4.4-4.1,9.4c0,0,6.2,12.3,12.9,14.4s10.5-11.2,8.7-13.2S404.9,156.4,404.9,156.4z"/>
	<path class="st13_startup-2-80" d="M434.5,202.3c3.2,6.1,5,12.8,5.1,19.7c0.2,8.5,0.6,76.4,0.6,76.4s-7.1,4.2-20.7,0.3c-2-0.6-4.5-58.5-4.5-58.5&#10;&#9;&#9;l4.6-29.9"/>
	<path class="st12_startup-2-80" d="M409.1,307.3c0.5,1.3,2,19.3,1.6,22.8s-5.6,3.6-7.3,3.3s-4.7-1.9-6.7-2s-13.1-2.9-12.6-5.8s2.5-5.7,5.1-5.7&#10;&#9;&#9;s9.3,0.8,9.3,0.8l0.1-16.2"/>
	<path class="st13_startup-2-80" d="M415.2,286.9c0.1-0.3,0.2-0.6,0.3-0.9c1.3-8.8,3.7-17.4,7.2-25.5c0.9-4.7,1.4-7.8,1.5-8c4-16.1,1-20.4,2-44.7&#10;&#9;&#9;l-17.4,0.9c0,0-9.6,31.8-13.1,60.4c-0.9,6.9-1.9,44.2-1.9,44.2s8.6,5.9,19,2.6l0.4-2C410.9,304.9,412.9,295.6,415.2,286.9z"/>
	<path class="st18_startup-2-80" d="M407.7,191c-0.5-6.7-2.9-10.3-1.4-16.8c4.8-5.3,14-11.6,14.9-11.8l5.1,1.2c4.5,1,7.6,4.9,7.8,9.5&#10;&#9;&#9;c0.3,10.4,0.7,27.8,0.2,29.2c-0.4,1.2-10.6,10.1-25.7,6.3C408.3,202.7,408.1,196.9,407.7,191z"/>
	<path class="st12_startup-2-80" d="M409.6,151.3c0,0-2.1,15.6,3.7,16.9s12.1-5.5,12.4-8.7S417.3,145.6,409.6,151.3z"/>
	<path class="st11_startup-2-80" d="M411.4,143.2c-0.6,0.2-5.9,3.4-5.6,5.6s1.2,6.9,2.8,6.2s1.5-3.6,2.8-1.5s2.3,3.8,3.6,3.2&#10;&#9;&#9;c0.8-0.3,1.7-0.3,2.5,0.1c0,0,0.1,11.3,1.4,10.5s6.8-3.1,8.8-6.5c1.3-2.1,1.6-6.2,1.2-9.4c-0.1-1.5-0.5-3-1.2-4.4&#10;&#9;&#9;C426,144.8,415.8,141.6,411.4,143.2z"/>
	<path class="st11_startup-2-80" d="M427.6,147.1c0,0,6.3,8.1,5.7,18S415,176.6,415,176.6l2.5-19.7"/>
	<path class="st18_startup-2-80" d="M376.3,184.5c0.8-2.7,2.9-4.9,5.5-6c4.9,4.6,10.9,9.7,12.8,8.9c2.9-1.1,8.6-14.6,16.8-15.3s8,10.6,8,10.6&#10;&#9;&#9;s-14.3,22-22,22.4c-6.2,0.3-17.6-10.6-22-15.9C375.6,187.6,375.9,186,376.3,184.5z"/>
	<path class="st13_startup-2-80" d="M406.6,324.5c-5.2,1.1-10.9,2-14.9-2.5c-0.5-0.6-1-1.3-1.3-2c-0.5,0-0.9,0-1.2,0c-2.5,0-4.6,2.8-5.1,5.7&#10;&#9;&#9;s10.6,5.6,12.6,5.8s5.1,1.8,6.7,2s6.9,0.1,7.3-3.3c0.1-2,0-4-0.1-5.9C409.3,324.5,408,324.6,406.6,324.5z"/>
	<path class="st18_startup-2-80" d="M431.5,223.5c0.1-0.8-1-1.1-1.2-0.3c-4.4,30.8-20.4,59.8-18,91.6c0.1,0.8,1.3,0.8,1.2,0&#10;&#9;&#9;C411.2,283.1,427.2,254.2,431.5,223.5z"/>
</g>
</svg>